<svg width="43" height="67" viewBox="0 0 43 67" fill="none" xmlns="http://www.w3.org/2000/svg">
<g clip-path="url(#clip0_43_1053)">
<path d="M39.9884 35.2917C40.5171 34.6908 40.464 33.7045 39.87 33.0887L30.1899 23.0537C29.5959 22.4379 28.6858 22.4258 28.1572 23.0267C27.6286 23.6276 27.6816 24.614 28.2756 25.2297L36.8801 34.1497L29.2228 42.8538C28.6942 43.4547 28.7472 44.441 29.3412 45.0568C29.9352 45.6726 30.8453 45.6847 31.3739 45.0838L39.9884 35.2917ZM28.9954 35.7344C29.7893 35.7456 30.3959 35.0573 30.3502 34.1969C30.3046 33.3366 29.624 32.6301 28.8302 32.6189L28.9954 35.7344ZM28.9128 34.1767C28.8302 32.6189 28.8302 32.619 28.8302 32.619C28.8301 32.619 28.8301 32.6189 28.8301 32.6189C28.8301 32.6189 28.83 32.6189 28.83 32.6189C28.8299 32.6189 28.8297 32.6189 28.8294 32.6189C28.8289 32.6189 28.8282 32.6189 28.8272 32.6189C28.8253 32.6189 28.8223 32.6188 28.8185 32.6188C28.8107 32.6187 28.799 32.6185 28.7836 32.6183C28.7526 32.6179 28.7065 32.6172 28.6456 32.6163C28.5239 32.6146 28.3431 32.6121 28.1071 32.6088C27.6352 32.6021 26.9423 32.5923 26.0588 32.5798L26.2239 35.6953C27.1075 35.7078 27.8004 35.7176 28.2723 35.7242C28.5083 35.7276 28.6891 35.7301 28.8109 35.7318C28.8718 35.7327 28.9179 35.7334 28.9488 35.7338C28.9643 35.734 28.9759 35.7342 28.9837 35.7343C28.9876 35.7343 28.9905 35.7344 28.9925 35.7344C28.9935 35.7344 28.9942 35.7344 28.9947 35.7344C28.9949 35.7344 28.9951 35.7344 28.9952 35.7344C28.9953 35.7344 28.9954 35.7344 28.9954 35.7344C28.9954 35.7344 28.9954 35.7344 28.9954 35.7344C28.9954 35.7344 28.9954 35.7344 28.9128 34.1767ZM20.3105 32.4985C18.5765 32.4739 16.6342 32.4464 14.5378 32.4166L14.7027 35.5321C16.7992 35.5619 18.7415 35.5894 20.4755 35.614L20.3105 32.4985ZM8.82973 32.3354C6.97694 32.309 5.05556 32.2816 3.0931 32.2536L3.25784 35.3691C5.22034 35.3971 7.14177 35.4245 8.99459 35.4509L8.82973 32.3354ZM-2.64483 32.1715C-4.54961 32.1442 -6.46748 32.1166 -8.37523 32.0891L-8.21078 35.2046C-6.30298 35.2321 -4.38505 35.2596 -2.48022 35.287L-2.64483 32.1715ZM-14.1079 32.0064C-16.0691 31.978 -17.9931 31.95 -19.8528 31.9229L-19.6888 35.0384C-17.829 35.0655 -15.905 35.0934 -13.9437 35.1218L-14.1079 32.0064ZM-25.5897 31.8388C-27.6463 31.8085 -29.5648 31.7799 -31.2962 31.7539L-31.1334 34.8693C-29.4017 34.8954 -27.483 34.9239 -25.4262 34.9543L-25.5897 31.8388ZM-37.0038 31.6662C-38.9459 31.6354 -40.1748 31.6142 -40.4828 31.6056C-40.5318 31.6042 -40.5271 31.6039 -40.5049 31.6054C-40.4993 31.6058 -40.4858 31.6067 -40.4684 31.6085C-40.4642 31.6089 -40.407 31.614 -40.3352 31.6283C-40.3348 31.6284 -40.1739 31.6558 -39.9891 31.7455C-39.8481 31.8236 -39.4456 32.1816 -39.2394 32.5046C-39.0661 33.1279 -39.3006 34.1105 -39.5494 34.399C-39.6794 34.4989 -39.8949 34.6157 -39.9715 34.6452C-40.0174 34.6603 -40.0943 34.6814 -40.125 34.6884C-40.1828 34.7008 -40.2287 34.7063 -40.2449 34.7082C-40.2832 34.7127 -40.313 34.7144 -40.3204 34.7148C-40.3323 34.7155 -40.3415 34.7158 -40.3458 34.716C-40.3507 34.7162 -40.3542 34.7162 -40.3559 34.7163C-40.3568 34.7163 -40.3575 34.7163 -40.358 34.7163C-40.3584 34.7163 -40.3586 34.7163 -40.3587 34.7163C-40.3587 34.7163 -40.3582 34.7163 -40.357 34.7163C-40.3558 34.7163 -40.3542 34.7163 -40.3521 34.7163C-40.3478 34.7162 -40.3421 34.7162 -40.3349 34.7162C-40.3204 34.7161 -40.3014 34.7161 -40.2775 34.7162C-40.2296 34.7163 -40.1655 34.7166 -40.0839 34.7171C-39.7571 34.7193 -39.171 34.7249 -38.2952 34.7345L-38.469 31.6189C-39.3446 31.6093 -39.9359 31.6036 -40.2692 31.6014C-40.4284 31.6004 -40.546 31.6 -40.6035 31.6009C-40.6122 31.6011 -40.6253 31.6013 -40.64 31.6018C-40.6473 31.6021 -40.659 31.6025 -40.673 31.6033C-40.6824 31.6039 -40.7138 31.6057 -40.7532 31.6103C-40.7699 31.6123 -40.8163 31.6179 -40.8744 31.6303C-40.9052 31.6374 -40.9823 31.6585 -41.0282 31.6736C-41.1049 31.7032 -41.3205 31.82 -41.4506 31.9199C-41.6994 32.2084 -41.9339 33.1911 -41.7606 33.8144C-41.5544 34.1374 -41.1518 34.4955 -41.0108 34.5736C-40.8258 34.6634 -40.6647 34.6909 -40.6639 34.691C-40.5913 34.7055 -40.5328 34.7108 -40.527 34.7114C-40.5078 34.7133 -40.4922 34.7144 -40.4839 34.715C-40.4407 34.7179 -40.3851 34.7194 -40.3546 34.7203C-40.0257 34.7295 -38.774 34.751 -36.8432 34.7817L-37.0038 31.6662ZM-32.6788 34.8007C-31.0464 34.8207 -29.1312 34.8445 -26.9103 34.8725L-27.0795 31.757C-29.3006 31.729 -31.2162 31.7051 -32.849 31.6851L-32.6788 34.8007ZM-21.2452 34.9445C-19.4915 34.9669 -17.602 34.9912 -15.5704 35.0174L-15.7388 31.9019C-17.7705 31.8757 -19.6601 31.8514 -21.4139 31.829L-21.2452 34.9445ZM-9.7498 35.0928C-7.95715 35.1161 -6.07416 35.1406 -4.09787 35.1664L-4.26591 32.0509C-6.24225 32.0251 -8.12529 32.0005 -9.918 31.9773L-9.7498 35.0928ZM1.63015 35.2413C3.46698 35.2653 5.37381 35.2903 7.35249 35.3163L7.18469 32.2008C5.20598 32.1748 3.29911 32.1498 1.46224 32.1257L1.63015 35.2413ZM13.0894 35.3918C14.9216 35.4159 16.809 35.4408 18.7528 35.4665L18.5852 32.3509C16.6413 32.3253 14.7539 32.3004 12.9217 32.2763L13.0894 35.3918ZM24.6341 35.5442C26.4367 35.568 28.2835 35.5924 30.1755 35.6175L30.008 32.502C28.116 32.4769 26.2691 32.4525 24.4665 32.4286L24.6341 35.5442ZM35.9876 35.6945C36.9791 35.7077 37.982 35.721 38.9966 35.7344L38.8291 32.6189C37.8146 32.6054 36.8116 32.5921 35.8201 32.579L35.9876 35.6945Z" fill="#9DFFFF"/>
</g>
<defs>
<clipPath id="clip0_43_1053">
<rect width="42" height="67" fill="white" transform="translate(0.5)"/>
</clipPath>
</defs>
</svg>
