<svg width="23" height="15" viewBox="0 0 23 15" fill="none" xmlns="http://www.w3.org/2000/svg">
<path d="M6.443 0.349976C7.082 0.349976 7.673 0.399976 8.213 0.547976C8.754 0.646976 9.197 0.844976 9.59 1.09198C9.984 1.33931 10.279 1.68564 10.475 2.13098C10.672 2.57598 10.771 3.12098 10.771 3.71398C10.771 4.40698 10.623 4.99998 10.279 5.44498C9.984 5.89098 9.492 6.28598 8.902 6.58298C9.738 6.83098 10.377 7.27598 10.771 7.86898C11.165 8.46198 11.41 9.20498 11.41 10.046C11.41 10.739 11.262 11.332 11.016 11.827C10.771 12.322 10.377 12.767 9.934 13.064C9.45258 13.382 8.9207 13.6159 8.361 13.756C7.771 13.905 7.181 14.004 6.591 14.004H0V0.349976H6.443ZM6.049 5.88998C6.59 5.88998 7.033 5.74198 7.377 5.49498C7.721 5.24798 7.869 4.80198 7.869 4.25798C7.869 3.96098 7.819 3.66398 7.721 3.46698C7.623 3.26998 7.475 3.11998 7.279 2.97198C7.0786 2.85942 6.86306 2.77624 6.639 2.72498C6.393 2.67498 6.148 2.67498 5.852 2.67498H3V5.89098L6.049 5.88998ZM6.197 11.728C6.492 11.728 6.787 11.678 7.033 11.629C7.279 11.579 7.525 11.481 7.721 11.332C7.9206 11.1863 8.08808 11.0012 8.213 10.788C8.311 10.541 8.41 10.244 8.41 9.89798C8.41 9.20498 8.213 8.70998 7.82 8.36398C7.426 8.06698 6.885 7.91898 6.246 7.91898H3V11.729L6.197 11.728ZM15.689 11.678C16.0823 12.074 16.6723 12.272 17.459 12.272C18 12.272 18.492 12.124 18.885 11.877C19.279 11.5796 19.525 11.2826 19.623 10.986H22.033C21.639 12.173 21.049 13.014 20.263 13.558C19.475 14.053 18.541 14.35 17.41 14.35C16.6865 14.3511 15.9691 14.2167 15.295 13.954C14.6881 13.7276 14.1472 13.3537 13.721 12.866C13.2633 12.4113 12.9256 11.8502 12.738 11.233C12.492 10.59 12.393 9.89798 12.393 9.10598C12.393 8.36398 12.492 7.67198 12.738 7.02798C12.974 6.40757 13.3244 5.83701 13.771 5.34598C14.213 4.90098 14.754 4.50598 15.344 4.25798C16.0008 3.99428 16.7023 3.85982 17.41 3.86198C18.246 3.86198 18.984 4.01098 19.623 4.35698C20.263 4.70298 20.754 5.09898 21.147 5.69298C21.541 6.23698 21.837 6.87998 22.033 7.57298C22.131 8.26498 22.18 8.95798 22.131 9.74898H15C15 10.541 15.295 11.283 15.689 11.679M18.787 6.48498C18.443 6.13898 17.902 5.94098 17.262 5.94098C16.8867 5.93535 16.5156 6.02007 16.18 6.18798C15.885 6.33698 15.689 6.53498 15.492 6.73298C15.3098 6.92344 15.1899 7.16477 15.148 7.42498C15.098 7.67298 15.049 7.86998 15.049 8.06798H19.475C19.377 7.32598 19.131 6.83198 18.787 6.48498ZM14.459 1.28998H19.967V2.62598H14.46L14.459 1.28998Z" fill="#9DFFFF"/>
</svg>
