<svg width="24" height="24" viewBox="0 0 24 24" fill="none" xmlns="http://www.w3.org/2000/svg">
<path d="M7.443 5.34998C8.082 5.34998 8.673 5.39998 9.213 5.54798C9.754 5.64698 10.197 5.84498 10.59 6.09198C10.984 6.33931 11.279 6.68564 11.475 7.13098C11.672 7.57598 11.771 8.12098 11.771 8.71398C11.771 9.40698 11.623 9.99998 11.279 10.445C10.984 10.891 10.492 11.286 9.902 11.583C10.738 11.831 11.377 12.276 11.771 12.869C12.165 13.462 12.41 14.205 12.41 15.046C12.41 15.739 12.262 16.332 12.016 16.827C11.771 17.322 11.377 17.767 10.934 18.064C10.4526 18.382 9.9207 18.6159 9.361 18.756C8.771 18.905 8.181 19.004 7.591 19.004H1V5.34998H7.443ZM7.049 10.89C7.59 10.89 8.033 10.742 8.377 10.495C8.721 10.248 8.869 9.80198 8.869 9.25798C8.869 8.96098 8.819 8.66398 8.721 8.46698C8.623 8.26998 8.475 8.11998 8.279 7.97198C8.0786 7.85942 7.86306 7.77624 7.639 7.72498C7.393 7.67498 7.148 7.67498 6.852 7.67498H4V10.891L7.049 10.89ZM7.197 16.728C7.492 16.728 7.787 16.678 8.033 16.629C8.279 16.579 8.525 16.481 8.721 16.332C8.9206 16.1863 9.08808 16.0012 9.213 15.788C9.311 15.541 9.41 15.244 9.41 14.898C9.41 14.205 9.213 13.71 8.82 13.364C8.426 13.067 7.885 12.919 7.246 12.919H4V16.729L7.197 16.728ZM16.689 16.678C17.0823 17.074 17.6723 17.272 18.459 17.272C19 17.272 19.492 17.124 19.885 16.877C20.279 16.5796 20.525 16.2826 20.623 15.986H23.033C22.639 17.173 22.049 18.014 21.263 18.558C20.475 19.053 19.541 19.35 18.41 19.35C17.6865 19.3511 16.9691 19.2167 16.295 18.954C15.6881 18.7276 15.1472 18.3537 14.721 17.866C14.2633 17.4113 13.9256 16.8502 13.738 16.233C13.492 15.59 13.393 14.898 13.393 14.106C13.393 13.364 13.492 12.672 13.738 12.028C13.974 11.4076 14.3244 10.837 14.771 10.346C15.213 9.90098 15.754 9.50598 16.344 9.25798C17.0008 8.99428 17.7023 8.85982 18.41 8.86198C19.246 8.86198 19.984 9.01098 20.623 9.35698C21.263 9.70298 21.754 10.099 22.147 10.693C22.541 11.237 22.837 11.88 23.033 12.573C23.131 13.265 23.18 13.958 23.131 14.749H16C16 15.541 16.295 16.283 16.689 16.679M19.787 11.485C19.443 11.139 18.902 10.941 18.262 10.941C17.8867 10.9353 17.5156 11.0201 17.18 11.188C16.885 11.337 16.689 11.535 16.492 11.733C16.3098 11.9234 16.1899 12.1648 16.148 12.425C16.098 12.673 16.049 12.87 16.049 13.068H20.475C20.377 12.326 20.131 11.832 19.787 11.485ZM15.459 6.28998H20.967V7.62598H15.46L15.459 6.28998Z" fill="#206EFF"/>
</svg>
