<svg width="16" height="17" viewBox="0 0 16 17" fill="none" xmlns="http://www.w3.org/2000/svg">
<path d="M8.5 0.333415C8.35575 0.22523 8.18031 0.166748 8 0.166748C7.81969 0.166748 7.64425 0.22523 7.5 0.333415C7.15283 0.599396 6.83268 0.898895 6.54417 1.22758C6.10833 1.71841 5.5 2.54591 5.5 3.50008C5.5 4.16312 5.76339 4.79901 6.23223 5.26785C6.70107 5.73669 7.33696 6.00008 8 6.00008H3C2.33696 6.00008 1.70107 6.26347 1.23223 6.73231C0.763392 7.20115 0.5 7.83704 0.5 8.50008V10.1667C0.5 11.1967 1.67583 11.7851 2.5 11.1667L3.05583 10.7501C3.20008 10.6419 3.37552 10.5834 3.55583 10.5834C3.73614 10.5834 3.91159 10.6419 4.05583 10.7501L4.2775 10.9167C4.71024 11.2413 5.23657 11.4167 5.7775 11.4167C6.31843 11.4167 6.84476 11.2413 7.2775 10.9167L7.5 10.7501C7.64425 10.6419 7.81969 10.5834 8 10.5834C8.18031 10.5834 8.35575 10.6419 8.5 10.7501L8.7225 10.9167C9.15524 11.2413 9.68157 11.4167 10.2225 11.4167C10.7634 11.4167 11.2898 11.2413 11.7225 10.9167L11.9442 10.7501C12.0884 10.6419 12.2639 10.5834 12.4442 10.5834C12.6245 10.5834 12.7999 10.6419 12.9442 10.7501L13.5 11.1667C14.3242 11.7851 15.5 11.1967 15.5 10.1667V8.50008C15.5 7.83704 15.2366 7.20115 14.7678 6.73231C14.2989 6.26347 13.663 6.00008 13 6.00008H8C8.66304 6.00008 9.29893 5.73669 9.76777 5.26785C10.2366 4.79901 10.5 4.16312 10.5 3.50008C10.5 2.54591 9.89167 1.71841 9.45583 1.22758C9.1675 0.902581 8.8475 0.594248 8.5 0.333415ZM1.33333 13.0126V15.1667C1.33333 15.6088 1.50893 16.0327 1.82149 16.3453C2.13405 16.6578 2.55797 16.8334 3 16.8334H13C13.442 16.8334 13.8659 16.6578 14.1785 16.3453C14.4911 16.0327 14.6667 15.6088 14.6667 15.1667V13.0126C14.4727 13.0826 14.2643 13.1029 14.0605 13.0716C13.8567 13.0403 13.664 12.9584 13.5 12.8334L12.9442 12.4167C12.7999 12.3086 12.6245 12.2501 12.4442 12.2501C12.2639 12.2501 12.0884 12.3086 11.9442 12.4167L11.7225 12.5834C11.2898 12.908 10.7634 13.0834 10.2225 13.0834C9.68157 13.0834 9.15524 12.908 8.7225 12.5834L8.5 12.4167C8.35575 12.3086 8.18031 12.2501 8 12.2501C7.81969 12.2501 7.64425 12.3086 7.5 12.4167L7.2775 12.5834C6.84476 12.908 6.31843 13.0834 5.7775 13.0834C5.23657 13.0834 4.71024 12.908 4.2775 12.5834L4.05583 12.4167C3.91159 12.3086 3.73614 12.2501 3.55583 12.2501C3.37552 12.2501 3.20008 12.3086 3.05583 12.4167L2.5 12.8334C2.33601 12.9584 2.1433 13.0403 1.93949 13.0716C1.73568 13.1029 1.52727 13.0826 1.33333 13.0126Z" fill="#9DFFFF"/>
</svg>
