<svg width="18" height="17" viewBox="0 0 18 17" fill="none" xmlns="http://www.w3.org/2000/svg">
<path d="M2.33341 16.5001C1.87508 16.5001 1.48286 16.337 1.15675 16.0109C0.830637 15.6848 0.667304 15.2923 0.666748 14.8334V5.66675C0.666748 5.20841 0.830081 4.81619 1.15675 4.49008C1.48341 4.16397 1.87564 4.00064 2.33341 4.00008H5.66675V2.33341C5.66675 1.87508 5.83008 1.48286 6.15675 1.15675C6.48341 0.830637 6.87564 0.667304 7.33341 0.666748H10.6667C11.1251 0.666748 11.5176 0.830081 11.8442 1.15675C12.1709 1.48341 12.334 1.87564 12.3334 2.33341V4.00008H15.6667C16.1251 4.00008 16.5176 4.16341 16.8442 4.49008C17.1709 4.81675 17.334 5.20897 17.3334 5.66675V14.8334C17.3334 15.2917 17.1704 15.6842 16.8442 16.0109C16.5181 16.3376 16.1256 16.5006 15.6667 16.5001H2.33341ZM7.33341 4.00008H10.6667V2.33341H7.33341V4.00008Z" fill="#9DFFFF"/>
</svg>
