<svg width="20" height="20" viewBox="0 0 20 20" fill="none" xmlns="http://www.w3.org/2000/svg">
<path d="M11.7742 12.439C12.5402 14.7093 13.0552 17.0566 13.3102 19.439C12.2464 19.8114 11.1272 20.0011 10.0002 20C8.01738 20.003 6.07888 19.4139 4.43315 18.308C5.2 16.887 6.2451 15.635 7.50613 14.6265C8.76717 13.618 10.2183 12.8737 11.7732 12.438L11.7742 12.439ZM19.5732 12.902C18.8591 15.2482 17.3097 17.2513 15.2182 18.532C14.9385 16.3344 14.4496 14.1686 13.7582 12.064C15.7359 11.8596 17.7336 12.1475 19.5732 12.902ZM10.1452 8.485C10.4772 9.163 10.7882 9.855 11.0752 10.558C7.61176 11.5731 4.67256 13.8834 2.86815 17.009C1.85421 15.97 1.07668 14.7243 0.588759 13.357C0.100837 11.9897 -0.0859591 10.5332 0.0411513 9.087C3.38415 9.795 6.91115 9.589 10.1452 8.485ZM17.7201 3.644C19.3862 5.67864 20.1902 8.28434 19.9601 10.904C17.7603 10.076 15.3884 9.81129 13.0602 10.134C12.7387 9.3217 12.3868 8.5218 12.0052 7.736C14.1475 6.7383 16.0855 5.35068 17.7201 3.644ZM5.26615 1.19C6.76054 2.88504 8.07741 4.72865 9.19615 6.692C6.35797 7.59595 3.33311 7.74416 0.420151 7.122C1.18682 4.58128 2.92945 2.44812 5.26615 1.19ZM10.0002 2.35239e-06C12.3882 2.35239e-06 14.5812 0.837003 16.3001 2.234C14.8116 3.79515 13.0403 5.05953 11.0802 5.96C9.97616 3.9838 8.68347 2.1191 7.22015 0.392002C8.12379 0.131323 9.05967 -0.00064257 10.0002 2.35239e-06Z" fill="#9DFFFF"/>
</svg>
