<svg width="33" height="32" viewBox="0 0 33 32" fill="none" xmlns="http://www.w3.org/2000/svg">
<path d="M20.081 15.35L9.01196 13.4V27.809C9.01183 27.9656 9.04261 28.1207 9.10255 28.2654C9.16248 28.4101 9.25038 28.5415 9.36121 28.6522C9.47205 28.7628 9.60363 28.8505 9.74842 28.9102C9.89321 28.9699 10.0484 29.0004 10.205 29H29.305C29.4617 29.0007 29.6171 28.9704 29.7621 28.9108C29.9071 28.8512 30.039 28.7636 30.15 28.6529C30.2611 28.5422 30.3491 28.4107 30.4092 28.2659C30.4692 28.1211 30.5001 27.9658 30.5 27.809V22.5L20.081 15.35Z" fill="#185C37"/>
<path d="M20.081 3H10.205C10.0484 2.99961 9.89321 3.03013 9.74842 3.08982C9.60363 3.14951 9.47205 3.23719 9.36121 3.34784C9.25038 3.45848 9.16248 3.58992 9.10255 3.73461C9.04261 3.8793 9.01183 4.03439 9.01196 4.191V9.5L20.081 16L25.942 17.95L30.5 16V9.5L20.081 3Z" fill="#21A366"/>
<path d="M9.01196 9.5H20.081V16H9.01196V9.5Z" fill="#107C41"/>
<path opacity="0.1" d="M16.934 8.19995H9.01196V24.45H16.934C17.2496 24.4484 17.552 24.3225 17.7755 24.0996C17.9989 23.8766 18.1256 23.5746 18.128 23.259V9.39095C18.1256 9.07529 17.9989 8.77327 17.7755 8.55034C17.552 8.32741 17.2496 8.20152 16.934 8.19995Z" fill="black"/>
<path opacity="0.2" d="M16.283 8.84998H9.01196V25.1H16.283C16.5986 25.0984 16.901 24.9725 17.1245 24.7496C17.3479 24.5267 17.4746 24.2246 17.477 23.909V10.041C17.4746 9.72531 17.3479 9.4233 17.1245 9.20037C16.901 8.97743 16.5986 8.85155 16.283 8.84998Z" fill="black"/>
<path opacity="0.2" d="M16.283 8.84998H9.01196V23.8H16.283C16.5986 23.7984 16.901 23.6725 17.1245 23.4496C17.3479 23.2267 17.4746 22.9246 17.477 22.609V10.041C17.4746 9.72531 17.3479 9.4233 17.1245 9.20037C16.901 8.97743 16.5986 8.85155 16.283 8.84998Z" fill="black"/>
<path opacity="0.2" d="M15.632 8.84998H9.01196V23.8H15.632C15.9476 23.7984 16.25 23.6725 16.4735 23.4496C16.6969 23.2267 16.8236 22.9246 16.826 22.609V10.041C16.8236 9.72531 16.6969 9.4233 16.4735 9.20037C16.25 8.97743 15.9476 8.85155 15.632 8.84998Z" fill="black"/>
<path d="M3.694 8.84998H15.632C15.9482 8.84972 16.2516 8.97502 16.4755 9.19834C16.6994 9.42167 16.8255 9.72475 16.826 10.041V21.959C16.8255 22.2752 16.6994 22.5783 16.4755 22.8016C16.2516 23.0249 15.9482 23.1502 15.632 23.15H3.694C3.53731 23.1505 3.38205 23.1201 3.23715 23.0605C3.09224 23.0008 2.96054 22.9132 2.8496 22.8025C2.73866 22.6918 2.65067 22.5604 2.59068 22.4156C2.53068 22.2709 2.49987 22.1157 2.5 21.959V10.041C2.49987 9.88429 2.53068 9.72911 2.59068 9.58436C2.65067 9.4396 2.73866 9.30812 2.8496 9.19746C2.96054 9.0868 3.09224 8.99914 3.23715 8.93951C3.38205 8.87988 3.53731 8.84946 3.694 8.84998Z" fill="url(#paint0_linear_504_481)"/>
<path d="M6.19995 19.873L8.71095 15.989L6.41095 12.127H8.25795L9.51295 14.6C9.62895 14.834 9.71295 15.008 9.75095 15.124H9.76795C9.84995 14.9366 9.93662 14.7546 10.028 14.578L11.37 12.131H13.07L10.711 15.971L13.13 19.876H11.321L9.87095 17.165C9.80382 17.0483 9.74662 16.9262 9.69995 16.8H9.67595C9.63357 16.923 9.5772 17.0408 9.50795 17.151L8.01495 19.873H6.19995Z" fill="white"/>
<path d="M29.3061 3.00001H20.0811V9.50001H30.5001V4.19101C30.5002 4.03431 30.4694 3.87913 30.4094 3.73438C30.3494 3.58963 30.2614 3.45815 30.1505 3.34749C30.0395 3.23682 29.9078 3.14916 29.7629 3.08953C29.618 3.0299 29.4627 2.99948 29.3061 3.00001Z" fill="#33C481"/>
<path d="M20.0811 16H30.5001V22.5H20.0811V16Z" fill="#107C41"/>
<defs>
<linearGradient id="paint0_linear_504_481" x1="4.994" y1="7.91398" x2="14.332" y2="24.086" gradientUnits="userSpaceOnUse">
<stop stop-color="#18884F"/>
<stop offset="0.5" stop-color="#117E43"/>
<stop offset="1" stop-color="#0B6631"/>
</linearGradient>
</defs>
</svg>
