<svg width="33" height="32" viewBox="0 0 33 32" fill="none" xmlns="http://www.w3.org/2000/svg">
<g clip-path="url(#clip0_203_233)">
<path d="M25 0H8C3.85786 0 0.5 3.35786 0.5 7.5V24.5C0.5 28.6421 3.85786 32 8 32H25C29.1421 32 32.5 28.6421 32.5 24.5V7.5C32.5 3.35786 29.1421 0 25 0Z" fill="#1B1E23"/>
<mask id="mask0_203_233" style="mask-type:luminance" maskUnits="userSpaceOnUse" x="8" y="3" width="17" height="26">
<path d="M8.125 3.5H24.795V28.5H8.125V3.5Z" fill="white"/>
</mask>
<g mask="url(#mask0_203_233)">
<path d="M12.2934 28.4999C14.5934 28.4999 16.46 26.6333 16.46 24.3333V20.1665H12.2934C9.99338 20.1665 8.12663 22.0333 8.12663 24.3333C8.12663 26.6333 9.99338 28.4999 12.2934 28.4999Z" fill="#0ACF83"/>
<path d="M8.12663 16.0001C8.12663 13.7001 9.99338 11.8335 12.2934 11.8335H16.46V20.1667H12.2934C9.99338 20.1667 8.12663 18.3001 8.12663 16.0001Z" fill="#A259FF"/>
<path d="M8.12663 7.66663C8.12663 5.36663 9.99338 3.5 12.2934 3.5H16.46V11.8334H12.2934C9.99338 11.8334 8.12663 9.96663 8.12663 7.66663Z" fill="#F24E1E"/>
<path d="M16.46 3.5H20.6266C22.9266 3.5 24.7934 5.36663 24.7934 7.66663C24.7934 9.96663 22.9266 11.8334 20.6266 11.8334H16.46V3.5Z" fill="#FF7262"/>
<path d="M24.7934 16.0001C24.7934 18.3001 22.9266 20.1667 20.6266 20.1667C18.3266 20.1667 16.46 18.3001 16.46 16.0001C16.46 13.7001 18.3266 11.8335 20.6266 11.8335C22.9266 11.8335 24.7934 13.7001 24.7934 16.0001Z" fill="#1ABCFE"/>
</g>
</g>
<defs>
<clipPath id="clip0_203_233">
<rect width="32" height="32" fill="white" transform="translate(0.5)"/>
</clipPath>
</defs>
</svg>
