<svg width="17" height="17" viewBox="0 0 17 17" fill="none" xmlns="http://www.w3.org/2000/svg">
<path d="M15.875 0.6875H12.125C11.8763 0.6875 11.6379 0.786272 11.462 0.962087C11.2862 1.1379 11.1875 1.37636 11.1875 1.625C11.1875 1.87364 11.2862 2.1121 11.462 2.28791C11.6379 2.46373 11.8763 2.5625 12.125 2.5625H13.6093L11.0531 5.12031C9.7242 4.12718 8.06849 3.6742 6.41911 3.85252C4.76973 4.03085 3.2491 4.82724 2.16319 6.08146C1.07729 7.33567 0.5067 8.95462 0.566244 10.6125C0.625788 12.2705 1.31104 13.8443 2.48413 15.0174C3.65721 16.1905 5.23105 16.8757 6.88898 16.9353C8.5469 16.9948 10.1658 16.4242 11.4201 15.3383C12.6743 14.2524 13.4707 12.7318 13.649 11.0824C13.8273 9.43303 13.3743 7.77732 12.3812 6.44844L14.9375 3.89062V5.375C14.9375 5.62364 15.0362 5.8621 15.212 6.03791C15.3879 6.21373 15.6263 6.3125 15.875 6.3125C16.1236 6.3125 16.3621 6.21373 16.5379 6.03791C16.7137 5.8621 16.8125 5.62364 16.8125 5.375V1.625C16.8125 1.37636 16.7137 1.1379 16.5379 0.962087C16.3621 0.786272 16.1236 0.6875 15.875 0.6875ZM10.4382 13.6922C9.7826 14.3476 8.94737 14.7938 8.03813 14.9745C7.1289 15.1552 6.18649 15.0623 5.33008 14.7075C4.47366 14.3526 3.74168 13.7518 3.2267 12.981C2.71171 12.2102 2.43684 11.304 2.43684 10.377C2.43684 9.44993 2.71171 8.54373 3.2267 7.77291C3.74168 7.0021 4.47366 6.40129 5.33008 6.04645C6.18649 5.69161 7.1289 5.59867 8.03813 5.77938C8.94737 5.9601 9.7826 6.40635 10.4382 7.06172C11.3158 7.94186 11.8086 9.13405 11.8086 10.377C11.8086 11.6199 11.3158 12.812 10.4382 13.6922Z" fill="#9DFFFF"/>
</svg>
