<svg width="27" height="22" viewBox="0 0 27 22" fill="none" xmlns="http://www.w3.org/2000/svg">
<path d="M3.5 17.6667H2.83333C2.47971 17.6667 2.14057 17.5262 1.89052 17.2761C1.64048 17.0261 1.5 16.687 1.5 16.3333C1.5 15.2725 1.92143 14.2551 2.67157 13.5049C3.42172 12.7548 4.43913 12.3333 5.5 12.3333H6.83333M6.83333 8.26667C6.34375 8.16654 5.88295 7.95761 5.48502 7.65535C5.08709 7.35309 4.7622 6.96523 4.5344 6.52046C4.30661 6.07569 4.18172 5.58539 4.169 5.08584C4.15627 4.58629 4.25602 4.09027 4.46087 3.63447C4.66572 3.17868 4.97043 2.77477 5.35246 2.45264C5.73448 2.13051 6.18404 1.89839 6.66789 1.77346C7.15173 1.64852 7.65748 1.63398 8.1477 1.73089C8.63793 1.8278 9.10009 2.03369 9.5 2.33333M23.5 17.6667H24.1667C24.5203 17.6667 24.8594 17.5262 25.1095 17.2761C25.3595 17.0261 25.5 16.687 25.5 16.3333C25.5 15.2725 25.0786 14.2551 24.3284 13.5049C23.5783 12.7548 22.5609 12.3333 21.5 12.3333H20.1667M20.1667 8.26667C20.6562 8.16654 21.117 7.95761 21.515 7.65535C21.9129 7.35309 22.2378 6.96523 22.4656 6.52046C22.6934 6.07569 22.8183 5.58539 22.831 5.08584C22.8437 4.58629 22.744 4.09027 22.5391 3.63447C22.3343 3.17868 22.0296 2.77477 21.6475 2.45264C21.2655 2.13051 20.816 1.89839 20.3321 1.77346C19.8483 1.64852 19.3425 1.63398 18.8523 1.73089C18.3621 1.8278 17.8999 2.03369 17.5 2.33333M18.1667 20.3333H8.83333C8.47971 20.3333 8.14057 20.1929 7.89052 19.9428C7.64048 19.6928 7.5 19.3536 7.5 19C7.5 17.9391 7.92143 16.9217 8.67157 16.1716C9.42172 15.4214 10.4391 15 11.5 15H15.5C16.5609 15 17.5783 15.4214 18.3284 16.1716C19.0786 16.9217 19.5 17.9391 19.5 19C19.5 19.3536 19.3595 19.6928 19.1095 19.9428C18.8594 20.1929 18.5203 20.3333 18.1667 20.3333ZM16.8333 7.66667C16.8333 8.55072 16.4821 9.39857 15.857 10.0237C15.2319 10.6488 14.3841 11 13.5 11C12.6159 11 11.7681 10.6488 11.143 10.0237C10.5179 9.39857 10.1667 8.55072 10.1667 7.66667C10.1667 6.78261 10.5179 5.93477 11.143 5.30964C11.7681 4.68452 12.6159 4.33333 13.5 4.33333C14.3841 4.33333 15.2319 4.68452 15.857 5.30964C16.4821 5.93477 16.8333 6.78261 16.8333 7.66667Z" stroke="white" stroke-width="2" stroke-linecap="round"/>
</svg>
