<svg width="15" height="21" viewBox="0 0 15 21" fill="none" xmlns="http://www.w3.org/2000/svg">
<path d="M7.25 10.0146C6.58696 10.0146 5.95107 9.75126 5.48223 9.28242C5.01339 8.81357 4.75 8.17769 4.75 7.51465C4.75 6.85161 5.01339 6.21572 5.48223 5.74688C5.95107 5.27804 6.58696 5.01465 7.25 5.01465C7.91304 5.01465 8.54893 5.27804 9.01777 5.74688C9.48661 6.21572 9.75 6.85161 9.75 7.51465C9.75 7.84295 9.68534 8.16804 9.5597 8.47136C9.43406 8.77467 9.24991 9.05027 9.01777 9.28242C8.78562 9.51456 8.51002 9.69871 8.20671 9.82435C7.90339 9.94998 7.5783 10.0146 7.25 10.0146ZM7.25 0.514648C5.39348 0.514648 3.61301 1.25215 2.30025 2.5649C0.987498 3.87766 0.25 5.65813 0.25 7.51465C0.25 12.7646 7.25 20.5146 7.25 20.5146C7.25 20.5146 14.25 12.7646 14.25 7.51465C14.25 5.65813 13.5125 3.87766 12.1997 2.5649C10.887 1.25215 9.10652 0.514648 7.25 0.514648Z" fill="#E5F2F2"/>
</svg>
