<svg width="21" height="17" viewBox="0 0 21 17" fill="none" xmlns="http://www.w3.org/2000/svg">
<path d="M18.25 14.5146H16.25V5.76465L10.25 9.51465L4.25 5.76465V14.5146H2.25V2.51465H3.45L10.25 6.76465L17.05 2.51465H18.25M18.25 0.514648H2.25C1.14 0.514648 0.25 1.40465 0.25 2.51465V14.5146C0.25 15.0451 0.460714 15.5538 0.835786 15.9289C1.21086 16.3039 1.71957 16.5146 2.25 16.5146H18.25C18.7804 16.5146 19.2891 16.3039 19.6642 15.9289C20.0393 15.5538 20.25 15.0451 20.25 14.5146V2.51465C20.25 1.98422 20.0393 1.47551 19.6642 1.10043C19.2891 0.725362 18.7804 0.514648 18.25 0.514648Z" fill="#E5F2F2"/>
</svg>
