<svg width="33" height="32" viewBox="0 0 33 32" fill="none" xmlns="http://www.w3.org/2000/svg">
<path d="M15.0091 0.96564C15.9319 0.433978 17.068 0.433981 17.9909 0.96564L28.7643 7.17223C29.6897 7.7054 30.26 8.69213 30.26 9.76018V22.2399C30.26 23.308 29.6897 24.2947 28.7643 24.8279L17.9909 31.0345C17.068 31.5661 15.9319 31.5661 15.0091 31.0345L4.23574 24.8279C3.31031 24.2947 2.74 23.308 2.74 22.2399V9.76018C2.74 8.69213 3.31031 7.7054 4.23574 7.17223L15.0091 0.96564Z" fill="#2D66F4"/>
<path fill-rule="evenodd" clip-rule="evenodd" d="M28.498 7.63437L17.7247 1.42777C16.9666 0.991048 16.0334 0.991048 15.2753 1.42777L4.50198 7.63437C3.7418 8.07234 3.27333 8.88284 3.27333 9.76018V22.2399C3.27333 23.1172 3.7418 23.9278 4.50198 24.3657L15.2753 30.5723C16.0334 31.009 16.9666 31.009 17.7247 30.5723L28.498 24.3657C29.2582 23.9278 29.7267 23.1172 29.7267 22.2399V9.76018C29.7267 8.88284 29.2582 8.07234 28.498 7.63437ZM17.9909 0.96564C17.068 0.433981 15.9319 0.433978 15.0091 0.96564L4.23574 7.17223C3.31031 7.7054 2.74 8.69213 2.74 9.76018V22.2399C2.74 23.308 3.31031 24.2947 4.23574 24.8279L15.0091 31.0345C15.9319 31.5661 17.068 31.5661 17.9909 31.0345L28.7643 24.8279C29.6897 24.2947 30.26 23.308 30.26 22.2399V9.76018C30.26 8.69213 29.6897 7.7054 28.7643 7.17223L17.9909 0.96564Z" fill="#E5F2F2"/>
<path fill-rule="evenodd" clip-rule="evenodd" d="M9.05733 19.1122C8.02976 18.0936 8.02976 16.4422 9.05739 15.4237L11.8484 12.6573C12.7171 11.7962 14.042 11.663 15.0518 12.2577C15.3642 12.4417 15.3614 12.8637 15.1045 13.1183C14.8476 13.3729 14.4283 13.351 14.0796 13.25C13.633 13.1205 13.1309 13.2303 12.7787 13.5794L9.98768 16.3458C9.47392 16.8551 9.47392 17.6808 9.98768 18.1901C10.5015 18.6993 11.3346 18.6993 11.8483 18.1901L17.4303 12.6573C18.4579 11.6387 20.1239 11.6387 21.1516 12.6573L23.9426 15.4237C24.9702 16.4422 24.9702 18.0936 23.9426 19.1122C22.915 20.1308 21.249 20.1308 20.2213 19.1122L19.291 18.1901L18.1281 19.3428C17.2594 20.2038 15.9345 20.3369 14.9246 19.7422C14.6123 19.5583 14.615 19.1363 14.8719 18.8816C15.1289 18.627 15.5482 18.6489 15.8969 18.75C16.3435 18.8795 16.8456 18.7696 17.1978 18.4206L18.3939 17.235C18.8894 16.7439 19.6926 16.7439 20.1881 17.235L21.1517 18.1901C21.6655 18.6993 22.4985 18.6993 23.0123 18.1901C23.5261 17.6808 23.5261 16.8551 23.0123 16.3458L20.2213 13.5794C19.7075 13.0701 18.8745 13.0701 18.3606 13.5794L12.7787 19.1122C11.751 20.1308 10.085 20.1308 9.05733 19.1122Z" fill="#E5F2F2"/>
</svg>
