<svg width="12" height="17" viewBox="0 0 12 17" fill="none" xmlns="http://www.w3.org/2000/svg">
<path d="M6.00008 8.08341C5.44755 8.08341 4.91764 7.86392 4.52694 7.47322C4.13624 7.08252 3.91675 6.55262 3.91675 6.00008C3.91675 5.44755 4.13624 4.91764 4.52694 4.52694C4.91764 4.13624 5.44755 3.91675 6.00008 3.91675C6.55262 3.91675 7.08252 4.13624 7.47322 4.52694C7.86392 4.91764 8.08342 5.44755 8.08342 6.00008C8.08342 6.27367 8.02953 6.54458 7.92483 6.79734C7.82013 7.0501 7.66668 7.27977 7.47322 7.47322C7.27977 7.66668 7.0501 7.82013 6.79734 7.92483C6.54458 8.02953 6.27367 8.08341 6.00008 8.08341ZM6.00008 0.166748C4.45299 0.166748 2.96925 0.78133 1.87529 1.87529C0.78133 2.96925 0.166748 4.45299 0.166748 6.00008C0.166748 10.3751 6.00008 16.8334 6.00008 16.8334C6.00008 16.8334 11.8334 10.3751 11.8334 6.00008C11.8334 4.45299 11.2188 2.96925 10.1249 1.87529C9.03091 0.78133 7.54718 0.166748 6.00008 0.166748Z" fill="#9DFFFF"/>
</svg>
