<svg width="40" height="40" viewBox="0 0 40 40" fill="none" xmlns="http://www.w3.org/2000/svg">
<path d="M34.9633 22.0167C35.0318 21.6988 35.0058 21.3679 34.8885 21.0647C34.7712 20.7614 34.5678 20.4991 34.3033 20.31L10.97 3.64334C10.7074 3.45454 10.3956 3.34628 10.0725 3.33181C9.74941 3.31733 9.42911 3.39726 9.15071 3.56182C8.87231 3.72639 8.64787 3.96847 8.50478 4.2585C8.3617 4.54852 8.30618 4.87394 8.345 5.19501L11.6783 33.5283C11.7167 33.8532 11.8498 34.1595 12.061 34.4092C12.2723 34.659 12.5523 34.841 12.8663 34.9327C13.1803 35.0244 13.5143 35.0216 13.8267 34.9249C14.1391 34.8281 14.4162 34.6415 14.6233 34.3883L20.6433 27.0283L26.2717 36.1283L29.1067 34.375L23.5117 25.3283L33.66 23.2983C33.9789 23.2359 34.2725 23.0812 34.5042 22.8533C34.7359 22.6254 34.8956 22.3345 34.9633 22.0167ZM20.5067 22.5333C20.1283 22.6088 19.7878 22.8132 19.5433 23.1117L14.53 29.24L12.095 8.54501L29.2333 20.7867L20.5067 22.5333Z" fill="#E5F2F2"/>
</svg>
