<svg width="472" height="709" viewBox="0 0 472 709" fill="none" xmlns="http://www.w3.org/2000/svg">
<mask id="mask0_429_536" style="mask-type:luminance" maskUnits="userSpaceOnUse" x="115" y="219" width="274" height="289">
<path d="M115.349 219.151H388.661V507.948H115.349V219.151Z" fill="white"/>
</mask>
<g mask="url(#mask0_429_536)">
<path d="M140.885 367.667C137.214 367.667 134.885 368.641 133.927 369.547C128.375 374.818 127.599 377.271 133.443 387.51C135.349 390.849 137.818 393.906 141.443 397.432C158.933 414.419 177.585 430.814 195.629 446.675C195.671 446.712 195.713 446.749 195.755 446.786L195.865 446.88C200.953 451.349 206.219 455.979 211.375 460.547C213.203 462.172 215.031 463.797 216.854 465.432C216.87 465.447 216.887 465.461 216.903 465.476C227.112 474.603 237.659 484.033 249.271 491.521C259.281 497.979 269.833 501.115 281.526 501.115C288.187 501.115 295.333 500.052 302.766 497.953C317.828 493.661 334.297 483.75 346.818 471.443C357.339 461.099 370.104 444.146 371.156 422.135L371.161 421.932L371.193 421.719C373.036 408.354 370.839 394.521 368.708 381.146L368.703 381.12C367.792 375.401 366.849 369.484 366.219 363.604C365.938 361.052 365.573 358.432 365.219 355.896L365.208 355.849C364.188 348.588 363.135 341.083 363.844 333.104C365.109 318.879 371.122 306.928 376.936 295.372C376.94 295.365 376.944 295.357 376.948 295.349L377.005 295.234C378.115 293.036 379.26 290.76 380.344 288.521C383.333 282.333 381.786 276.995 376.089 273.865C374.401 272.937 371.724 272.427 368.547 272.427C359.438 272.427 348.083 276.463 343.75 281.24C335.266 290.604 331.224 302.25 331.396 316.854C331.505 326.068 326.844 333.047 318.599 336.016C316.229 336.87 313.849 337.302 311.531 337.302C305.844 337.302 300.568 334.776 295.854 329.797C290.75 324.406 279.464 309.698 269.51 296.719L269.49 296.687C261.906 286.802 254.745 277.469 251.688 274.026C246.115 267.75 240.135 260.12 234.354 252.734C226.344 242.505 218.062 231.932 213.719 228.927C211.177 227.172 208.557 226.281 205.943 226.281C205.229 226.281 204.505 226.344 203.781 226.474C199.255 227.292 195.245 230.463 193.312 234.75C191.859 237.974 191.828 240.891 193.224 243.672C196.765 250.368 203.549 259.24 209.537 267.072C209.539 267.074 209.54 267.076 209.542 267.078L209.573 267.12C210.388 268.188 211.186 269.236 211.963 270.256C212.129 270.474 212.294 270.691 212.458 270.906C233.724 298.948 248.161 318.984 254.208 328.849C255.307 330.641 255.359 332.87 254.349 334.682C253.312 336.531 251.354 337.682 249.245 337.682C247.625 337.682 246.057 336.974 244.948 335.745C232.401 321.781 199.484 284.547 183.01 265.604C181.38 263.734 179.802 261.807 178.276 259.943C178.261 259.925 178.247 259.907 178.232 259.889C173.756 254.437 169.132 248.805 163.375 244.802C160.068 242.505 156.781 241.338 153.599 241.338C150.786 241.338 148.036 242.271 145.432 244.104C140.396 247.656 138.766 253.521 141.182 259.406C144.452 267.367 156.212 280.034 165.664 290.215C165.666 290.218 165.669 290.221 165.672 290.224C169.781 294.646 173.328 298.463 175.839 301.516C181.484 308.385 187.51 315.161 193.344 321.713C193.36 321.731 193.376 321.749 193.392 321.767C199.997 329.193 206.823 336.868 213.203 344.786C214.593 346.512 216.428 348.499 218.369 350.6C218.385 350.617 218.401 350.634 218.417 350.651C218.425 350.66 218.433 350.668 218.441 350.677C222.159 354.697 226.361 359.239 229.385 364.01C230.641 365.99 230.729 368.484 229.609 370.521C228.469 372.594 226.312 373.88 223.974 373.88C222.536 373.88 221.167 373.396 220.005 372.484C212.344 366.411 199.729 352.906 190.521 343.047C187.687 340.01 185.24 337.391 183.359 335.437C180.295 332.256 177.241 328.976 174.285 325.8C174.216 325.726 174.147 325.652 174.078 325.578C166.042 316.927 157.734 307.995 148.687 300.495C144.396 296.937 139.292 294.896 134.682 294.896C128.953 294.896 124.917 297.969 123.016 303.786C120.682 310.906 124.583 316.807 131.63 324.021C139.766 332.349 148.198 340.677 156.359 348.734L156.437 348.812C160.911 353.234 165.542 357.812 170.073 362.333C179.969 372.213 200.953 393.802 209.51 404.755C210.969 406.62 211.234 409.094 210.208 411.198C209.177 413.318 207 414.687 204.672 414.687C203.286 414.687 201.969 414.224 200.854 413.338C195.184 408.819 187.277 401.65 178.896 394.051C178.854 394.013 178.813 393.975 178.771 393.937C168.177 384.323 157.219 374.385 151.687 370.713C148.771 368.781 144.833 367.667 140.885 367.667ZM281.526 507.948C268.479 507.948 256.719 504.453 245.568 497.26C233.49 489.474 222.719 479.844 212.302 470.531C210.484 468.901 208.667 467.276 206.844 465.661C201.698 461.099 196.437 456.479 191.354 452.01L191.25 451.922C173.099 435.969 154.339 419.479 136.682 402.333C132.578 398.344 129.745 394.818 127.51 390.896C123.812 384.422 122.385 380.224 122.573 376.391C122.828 371.312 126.078 367.578 129.224 364.594C131.776 362.172 135.917 360.838 140.885 360.838C146.146 360.838 151.464 362.359 155.469 365.021C161.427 368.979 172.578 379.094 183.359 388.87C189.078 394.062 194.573 399.047 199.245 403.088C189.401 391.724 173.469 375.38 165.245 367.167C160.729 362.661 156.104 358.094 151.635 353.677L151.552 353.599C143.375 345.521 134.917 337.167 126.74 328.797C121.74 323.677 112.427 314.146 116.521 301.656C119.349 293.021 125.974 288.068 134.682 288.068C140.854 288.068 147.547 290.682 153.047 295.234C162.437 303.016 170.901 312.115 179.078 320.917C182.083 324.151 185.187 327.49 188.276 330.698C190.198 332.693 192.661 335.328 195.516 338.385C203.651 347.094 214.484 358.698 221.875 365.141C219.354 361.729 216.229 358.349 213.406 355.302C211.359 353.083 209.427 350.995 207.88 349.073C201.594 341.266 194.802 333.635 188.24 326.255C182.365 319.651 176.292 312.828 170.562 305.859C168.177 302.963 164.698 299.213 160.667 294.87C150.833 284.286 138.599 271.109 134.859 262C133.094 257.693 132.781 253.198 133.953 249.01C135.141 244.786 137.75 241.161 141.495 238.521C145.276 235.859 149.349 234.505 153.599 234.505C158.203 234.505 162.802 236.083 167.276 239.193C173.833 243.75 178.776 249.781 183.557 255.609C185.057 257.437 186.604 259.323 188.167 261.12C201.323 276.25 224.979 303.052 240.333 320.318C232.766 309.448 221.49 294.125 207.01 275.036C206.089 273.818 205.125 272.557 204.141 271.271L204.109 271.234C197.953 263.172 190.974 254.036 187.167 246.838L187.135 246.781C184.807 242.161 184.786 237.031 187.083 231.943C189.922 225.635 195.859 220.963 202.568 219.75C203.687 219.547 204.823 219.443 205.943 219.443C209.974 219.443 213.901 220.745 217.609 223.307C222.802 226.901 230.651 236.922 239.734 248.521C245.453 255.823 251.365 263.37 256.797 269.49C260.016 273.115 267.25 282.547 274.911 292.531L274.927 292.557C284.786 305.406 295.958 319.963 300.818 325.099C304.193 328.667 307.797 330.474 311.531 330.474C313.057 330.474 314.656 330.172 316.286 329.588C321.776 327.609 324.641 323.234 324.562 316.937C324.365 300.526 328.99 287.349 338.693 276.646C344.313 270.448 357.422 265.594 368.547 265.594C372.917 265.594 376.667 266.385 379.38 267.875C388.276 272.766 391.073 282.036 386.495 291.495C385.385 293.786 384.229 296.083 383.109 298.307L383.057 298.417C377.521 309.406 371.802 320.776 370.651 333.708C370.01 340.906 371.01 348.021 371.979 354.901L371.984 354.943C372.349 357.536 372.724 360.208 373.01 362.875C373.63 368.583 374.552 374.411 375.448 380.042L375.453 380.073C377.656 393.906 379.938 408.213 377.974 422.562C376.776 446.74 362.979 465.135 351.604 476.312C338.312 489.385 320.75 499.932 304.63 504.526C296.583 506.797 288.818 507.948 281.526 507.948Z" fill="black"/>
<path d="M140.885 367.667C137.214 367.667 134.885 368.641 133.927 369.547C128.375 374.818 127.599 377.271 133.443 387.51C135.349 390.849 137.818 393.906 141.443 397.432C158.933 414.419 177.585 430.814 195.629 446.675L195.755 446.786L195.865 446.88C200.953 451.349 206.219 455.979 211.375 460.547C213.203 462.172 215.031 463.797 216.854 465.432L216.903 465.476C227.112 474.603 237.659 484.033 249.271 491.521C259.281 497.979 269.833 501.115 281.526 501.115C288.187 501.115 295.333 500.052 302.766 497.953C317.828 493.661 334.297 483.75 346.818 471.443C357.339 461.099 370.104 444.146 371.156 422.135L371.161 421.932L371.193 421.719C373.036 408.354 370.839 394.521 368.708 381.146L368.703 381.12C367.792 375.401 366.849 369.484 366.219 363.604C365.938 361.052 365.573 358.432 365.219 355.896L365.208 355.849C364.188 348.588 363.135 341.083 363.844 333.104C365.109 318.879 371.122 306.928 376.936 295.372L376.948 295.349L377.005 295.234C378.115 293.036 379.26 290.76 380.344 288.521C383.333 282.333 381.786 276.995 376.089 273.865C374.401 272.937 371.724 272.427 368.547 272.427C359.438 272.427 348.083 276.463 343.75 281.24C335.266 290.604 331.224 302.25 331.396 316.854C331.505 326.068 326.844 333.047 318.599 336.016C316.229 336.87 313.849 337.302 311.531 337.302C305.844 337.302 300.568 334.776 295.854 329.797C290.75 324.406 279.464 309.698 269.51 296.719L269.49 296.687C261.906 286.802 254.745 277.469 251.688 274.026C246.115 267.75 240.135 260.12 234.354 252.734C226.344 242.505 218.062 231.932 213.719 228.927C211.177 227.172 208.557 226.281 205.943 226.281C205.229 226.281 204.505 226.344 203.781 226.474C199.255 227.292 195.245 230.463 193.312 234.75C191.859 237.974 191.828 240.891 193.224 243.672C196.765 250.368 203.549 259.24 209.537 267.072L209.542 267.078L209.573 267.12C210.388 268.188 211.186 269.236 211.963 270.256L212.458 270.906C233.724 298.948 248.161 318.984 254.208 328.849C255.307 330.641 255.359 332.87 254.349 334.682C253.312 336.531 251.354 337.682 249.245 337.682C247.625 337.682 246.057 336.974 244.948 335.745C232.401 321.781 199.484 284.547 183.01 265.604C181.38 263.734 179.802 261.807 178.276 259.943L178.232 259.889C173.756 254.437 169.132 248.805 163.375 244.802C160.068 242.505 156.781 241.338 153.599 241.338C150.786 241.338 148.036 242.271 145.432 244.104C140.396 247.656 138.766 253.521 141.182 259.406C144.452 267.367 156.212 280.034 165.664 290.215L165.672 290.224C169.781 294.646 173.328 298.463 175.839 301.516C181.484 308.385 187.51 315.161 193.344 321.713L193.392 321.767C199.997 329.193 206.823 336.868 213.203 344.786C214.593 346.512 216.428 348.499 218.369 350.6L218.417 350.651L218.441 350.677C222.159 354.697 226.361 359.239 229.385 364.01C230.641 365.99 230.729 368.484 229.609 370.521C228.469 372.594 226.312 373.88 223.974 373.88C222.536 373.88 221.167 373.396 220.005 372.484C212.344 366.411 199.729 352.906 190.521 343.047C187.687 340.01 185.24 337.391 183.359 335.437C180.295 332.256 177.241 328.976 174.285 325.8L174.078 325.578C166.042 316.927 157.734 307.995 148.687 300.495C144.396 296.937 139.292 294.896 134.682 294.896C128.953 294.896 124.917 297.969 123.016 303.786C120.682 310.906 124.583 316.807 131.63 324.021C139.766 332.349 148.198 340.677 156.359 348.734L156.437 348.812C160.911 353.234 165.542 357.812 170.073 362.333C179.969 372.213 200.953 393.802 209.51 404.755C210.969 406.62 211.234 409.094 210.208 411.198C209.177 413.318 207 414.687 204.672 414.687C203.286 414.687 201.969 414.224 200.854 413.338C195.184 408.819 187.277 401.65 178.896 394.051L178.771 393.937C168.177 384.323 157.219 374.385 151.687 370.713C148.771 368.781 144.833 367.667 140.885 367.667Z" fill="url(#paint0_radial_429_536)"/>
</g>
<path d="M246.099 191.672C264.667 202.125 279.698 218.214 289.115 237.307C291.724 242.594 293.818 248.068 295.479 253.74C296.792 258.214 303.797 256.312 302.479 251.812C296.151 230.182 283.125 210.531 265.651 196.292C260.661 192.229 255.37 188.562 249.76 185.406C245.687 183.115 242.021 189.38 246.099 191.672Z" fill="url(#paint1_linear_429_536)"/>
<path d="M238.661 213.073C255.109 222.724 267.245 238.865 272.469 257.167C273.75 261.651 280.755 259.74 279.474 255.234C275.026 239.661 265.979 225.323 253.599 214.833C250.073 211.849 246.312 209.146 242.328 206.802C238.286 204.432 234.63 210.703 238.661 213.073Z" fill="url(#paint2_linear_429_536)"/>
<mask id="mask1_429_536" style="mask-type:luminance" maskUnits="userSpaceOnUse" x="65" y="396" width="70" height="64">
<path d="M65.8386 396H134.667V460H65.8386V396Z" fill="white"/>
</mask>
<g mask="url(#mask1_429_536)">
<path d="M66.6875 402.135C76.4271 422.406 92.573 439.547 112.057 450.745C117.672 453.969 123.583 456.672 129.667 458.891C131.505 459.563 133.641 458.135 134.13 456.354C134.682 454.333 133.443 452.563 131.594 451.891C111.927 444.724 94.3698 431.26 82.2136 414.172C78.6823 409.214 75.5938 403.953 72.9532 398.469C72.1094 396.703 69.5834 396.234 67.9896 397.167C66.1823 398.224 65.8334 400.359 66.6875 402.135Z" fill="url(#paint3_linear_429_536)"/>
</g>
<path d="M88.5208 396.099C95.75 410.464 107.568 422.464 121.589 430.302C125.734 432.62 130.094 434.557 134.568 436.151C136.417 436.813 138.542 435.411 139.031 433.615C139.583 431.609 138.354 429.813 136.5 429.151C118.573 422.76 103.349 409.438 94.7916 392.432C93.9114 390.682 91.4427 390.188 89.8229 391.13C88.0416 392.172 87.6354 394.339 88.5208 396.099Z" fill="url(#paint4_linear_429_536)"/>
<defs>
<radialGradient id="paint0_radial_429_536" cx="0" cy="0" r="1" gradientUnits="userSpaceOnUse" gradientTransform="translate(285.5 401) rotate(115.463) scale(220.964 209.21)">
<stop stop-color="#EABE9A"/>
<stop offset="1" stop-color="#F1B27F"/>
</radialGradient>
<linearGradient id="paint1_linear_429_536" x1="273.482" y1="184.91" x2="273.482" y2="256.29" gradientUnits="userSpaceOnUse">
<stop stop-color="#707070"/>
<stop offset="1" stop-color="#D6D6D6"/>
</linearGradient>
<linearGradient id="paint2_linear_429_536" x1="258.27" y1="206.276" x2="258.27" y2="259.721" gradientUnits="userSpaceOnUse">
<stop stop-color="#707070"/>
<stop offset="1" stop-color="#D6D6D6"/>
</linearGradient>
<linearGradient id="paint3_linear_429_536" x1="100.253" y1="396.698" x2="100.253" y2="459.06" gradientUnits="userSpaceOnUse">
<stop stop-color="#707070"/>
<stop offset="1" stop-color="#D6D6D6"/>
</linearGradient>
<linearGradient id="paint4_linear_429_536" x1="113.617" y1="390.66" x2="113.617" y2="436.318" gradientUnits="userSpaceOnUse">
<stop stop-color="#707070"/>
<stop offset="1" stop-color="#D6D6D6"/>
</linearGradient>
</defs>
</svg>
