<svg width="21" height="21" viewBox="0 0 21 21" fill="none" xmlns="http://www.w3.org/2000/svg">
<path d="M17.3 3.42471C16.3832 2.49863 15.2912 1.76438 14.0876 1.26476C12.8841 0.765142 11.5931 0.510168 10.29 0.514708C4.82999 0.514708 0.379988 4.96471 0.379988 10.4247C0.379988 12.1747 0.839988 13.8747 1.69999 15.3747L0.299988 20.5147L5.54999 19.1347C6.99999 19.9247 8.62999 20.3447 10.29 20.3447C15.75 20.3447 20.2 15.8947 20.2 10.4347C20.2 7.78471 19.17 5.29471 17.3 3.42471ZM10.29 18.6647C8.80999 18.6647 7.35999 18.2647 6.08999 17.5147L5.78999 17.3347L2.66999 18.1547L3.49999 15.1147L3.29999 14.8047C2.47773 13.4917 2.04113 11.974 2.03999 10.4247C2.03999 5.88471 5.73999 2.18471 10.28 2.18471C12.48 2.18471 14.55 3.04471 16.1 4.60471C16.8675 5.36867 17.4757 6.27737 17.8894 7.27813C18.3031 8.2789 18.514 9.35182 18.51 10.4347C18.53 14.9747 14.83 18.6647 10.29 18.6647ZM14.81 12.5047C14.56 12.3847 13.34 11.7847 13.12 11.6947C12.89 11.6147 12.73 11.5747 12.56 11.8147C12.39 12.0647 11.92 12.6247 11.78 12.7847C11.64 12.9547 11.49 12.9747 11.24 12.8447C10.99 12.7247 10.19 12.4547 9.24999 11.6147C8.50999 10.9547 8.01999 10.1447 7.86999 9.89471C7.72999 9.64471 7.84999 9.51471 7.97999 9.38471C8.08999 9.27471 8.22999 9.09471 8.34999 8.95471C8.46999 8.81471 8.51999 8.70471 8.59999 8.54471C8.67999 8.37471 8.63999 8.23471 8.57999 8.11471C8.51999 7.99471 8.01999 6.77471 7.81999 6.27471C7.61999 5.79471 7.40999 5.85471 7.25999 5.84471H6.77999C6.60999 5.84471 6.34999 5.90471 6.11999 6.15471C5.89999 6.40471 5.25999 7.00471 5.25999 8.22471C5.25999 9.44471 6.14999 10.6247 6.26999 10.7847C6.38999 10.9547 8.01999 13.4547 10.5 14.5247C11.09 14.7847 11.55 14.9347 11.91 15.0447C12.5 15.2347 13.04 15.2047 13.47 15.1447C13.95 15.0747 14.94 14.5447 15.14 13.9647C15.35 13.3847 15.35 12.8947 15.28 12.7847C15.21 12.6747 15.06 12.6247 14.81 12.5047Z" fill="#E5F2F2"/>
</svg>
